<svg width="10" height="10" viewBox="0 0 10 10" fill="none" xmlns="http://www.w3.org/2000/svg">
<path d="M5 4.5C5.66304 4.5 6.29893 4.76339 6.76777 5.23223C7.23661 5.70107 7.5 6.33696 7.5 7V10H6.5V7C6.50002 6.61739 6.35384 6.24924 6.09136 5.97087C5.82888 5.6925 5.46995 5.52495 5.088 5.5025L5 5.5C4.61739 5.49998 4.24924 5.64616 3.97087 5.90864C3.6925 6.17112 3.52495 6.53005 3.5025 6.912L3.5 7V10H2.5V7C2.5 6.33696 2.76339 5.70107 3.23223 5.23223C3.70107 4.76339 4.33696 4.5 5 4.5ZM1.75 6C1.8895 6 2.025 6.0165 2.155 6.047C2.06951 6.3015 2.01888 6.56641 2.0045 6.8345L2 7V7.043C1.94253 7.02243 1.88275 7.009 1.822 7.003L1.75 7C1.56356 7.00001 1.3838 7.06946 1.24579 7.19481C1.10778 7.32016 1.0214 7.49242 1.0035 7.678L1 7.75V10H0V7.75C0 7.28587 0.184374 6.84075 0.512563 6.51256C0.840752 6.18437 1.28587 6 1.75 6V6ZM8.25 6C8.71413 6 9.15925 6.18437 9.48744 6.51256C9.81563 6.84075 10 7.28587 10 7.75V10H9V7.75C8.99999 7.56356 8.93054 7.3838 8.80519 7.24579C8.67984 7.10778 8.50758 7.0214 8.322 7.0035L8.25 7C8.1625 7 8.0785 7.015 8 7.0425V7C8 6.667 7.946 6.347 7.8455 6.048C7.975 6.0165 8.1105 6 8.25 6ZM1.75 3C2.08152 3 2.39946 3.1317 2.63388 3.36612C2.8683 3.60054 3 3.91848 3 4.25C3 4.58152 2.8683 4.89946 2.63388 5.13388C2.39946 5.3683 2.08152 5.5 1.75 5.5C1.41848 5.5 1.10054 5.3683 0.866117 5.13388C0.631696 4.89946 0.5 4.58152 0.5 4.25C0.5 3.91848 0.631696 3.60054 0.866117 3.36612C1.10054 3.1317 1.41848 3 1.75 3V3ZM8.25 3C8.58152 3 8.89946 3.1317 9.13388 3.36612C9.3683 3.60054 9.5 3.91848 9.5 4.25C9.5 4.58152 9.3683 4.89946 9.13388 5.13388C8.89946 5.3683 8.58152 5.5 8.25 5.5C7.91848 5.5 7.60054 5.3683 7.36612 5.13388C7.1317 4.89946 7 4.58152 7 4.25C7 3.91848 7.1317 3.60054 7.36612 3.36612C7.60054 3.1317 7.91848 3 8.25 3V3ZM1.75 4C1.6837 4 1.62011 4.02634 1.57322 4.07322C1.52634 4.12011 1.5 4.1837 1.5 4.25C1.5 4.3163 1.52634 4.37989 1.57322 4.42678C1.62011 4.47366 1.6837 4.5 1.75 4.5C1.8163 4.5 1.87989 4.47366 1.92678 4.42678C1.97366 4.37989 2 4.3163 2 4.25C2 4.1837 1.97366 4.12011 1.92678 4.07322C1.87989 4.02634 1.8163 4 1.75 4ZM8.25 4C8.1837 4 8.12011 4.02634 8.07322 4.07322C8.02634 4.12011 8 4.1837 8 4.25C8 4.3163 8.02634 4.37989 8.07322 4.42678C8.12011 4.47366 8.1837 4.5 8.25 4.5C8.3163 4.5 8.37989 4.47366 8.42678 4.42678C8.47366 4.37989 8.5 4.3163 8.5 4.25C8.5 4.1837 8.47366 4.12011 8.42678 4.07322C8.37989 4.02634 8.3163 4 8.25 4ZM5 0C5.53043 0 6.03914 0.210714 6.41421 0.585786C6.78929 0.960859 7 1.46957 7 2C7 2.53043 6.78929 3.03914 6.41421 3.41421C6.03914 3.78929 5.53043 4 5 4C4.46957 4 3.96086 3.78929 3.58579 3.41421C3.21071 3.03914 3 2.53043 3 2C3 1.46957 3.21071 0.960859 3.58579 0.585786C3.96086 0.210714 4.46957 0 5 0V0ZM5 1C4.73478 1 4.48043 1.10536 4.29289 1.29289C4.10536 1.48043 4 1.73478 4 2C4 2.26522 4.10536 2.51957 4.29289 2.70711C4.48043 2.89464 4.73478 3 5 3C5.26522 3 5.51957 2.89464 5.70711 2.70711C5.89464 2.51957 6 2.26522 6 2C6 1.73478 5.89464 1.48043 5.70711 1.29289C5.51957 1.10536 5.26522 1 5 1V1Z" fill="#101828"/>
</svg>
