<svg width="16" height="17" viewBox="0 0 16 17" fill="none" xmlns="http://www.w3.org/2000/svg">
<path d="M11.3333 2.74419H14C14.1768 2.74419 14.3464 2.81443 14.4714 2.93945C14.5964 3.06448 14.6667 3.23405 14.6667 3.41086V14.0775C14.6667 14.2543 14.5964 14.4239 14.4714 14.5489C14.3464 14.674 14.1768 14.7442 14 14.7442H2.00001C1.8232 14.7442 1.65363 14.674 1.52861 14.5489C1.40358 14.4239 1.33334 14.2543 1.33334 14.0775V3.41086C1.33334 3.23405 1.40358 3.06448 1.52861 2.93945C1.65363 2.81443 1.8232 2.74419 2.00001 2.74419H4.66668V1.41086H6.00001V2.74419H10V1.41086H11.3333V2.74419ZM13.3333 6.74419V4.07752H11.3333V5.41086H10V4.07752H6.00001V5.41086H4.66668V4.07752H2.66668V6.74419H13.3333ZM13.3333 8.07752H2.66668V13.4109H13.3333V8.07752ZM4.00001 9.41086H7.33334V12.0775H4.00001V9.41086Z" fill="#101828"/>
</svg>
