<svg width="16" height="17" viewBox="0 0 16 17" fill="none" xmlns="http://www.w3.org/2000/svg">
<path d="M8.00001 15.4109C4.31801 15.4109 1.33334 12.4262 1.33334 8.74421C1.33334 5.06221 4.31801 2.07755 8.00001 2.07755C11.682 2.07755 14.6667 5.06221 14.6667 8.74421C14.6667 12.4262 11.682 15.4109 8.00001 15.4109ZM8.00001 14.0775C9.4145 14.0775 10.7711 13.5156 11.7712 12.5154C12.7714 11.5153 13.3333 10.1587 13.3333 8.74421C13.3333 7.32972 12.7714 5.97317 11.7712 4.97298C10.7711 3.97278 9.4145 3.41088 8.00001 3.41088C6.58552 3.41088 5.22897 3.97278 4.22877 4.97298C3.22858 5.97317 2.66668 7.32972 2.66668 8.74421C2.66668 10.1587 3.22858 11.5153 4.22877 12.5154C5.22897 13.5156 6.58552 14.0775 8.00001 14.0775V14.0775ZM8.66668 8.74421H11.3333V10.0775H7.33334V5.41088H8.66668V8.74421Z" fill="#101828"/>
</svg>
