<svg width="20" height="21" viewBox="0 0 20 21" fill="none" xmlns="http://www.w3.org/2000/svg">
<path d="M10 20.7441C4.477 20.7441 0 16.2671 0 10.7441C0 5.22114 4.477 0.744141 10 0.744141C15.523 0.744141 20 5.22114 20 10.7441C20 16.2671 15.523 20.7441 10 20.7441ZM10 18.7441C12.1217 18.7441 14.1566 17.9013 15.6569 16.401C17.1571 14.9007 18 12.8659 18 10.7441C18 8.62241 17.1571 6.58758 15.6569 5.08729C14.1566 3.587 12.1217 2.74414 10 2.74414C7.87827 2.74414 5.84344 3.587 4.34315 5.08729C2.84285 6.58758 2 8.62241 2 10.7441C2 12.8659 2.84285 14.9007 4.34315 16.401C5.84344 17.9013 7.87827 18.7441 10 18.7441ZM8.622 7.15914L13.501 10.4111C13.5559 10.4477 13.6009 10.4972 13.632 10.5553C13.6631 10.6133 13.6794 10.6782 13.6794 10.7441C13.6794 10.81 13.6631 10.8749 13.632 10.933C13.6009 10.9911 13.5559 11.0406 13.501 11.0771L8.621 14.3291C8.56083 14.369 8.49098 14.3919 8.41887 14.3953C8.34676 14.3987 8.27507 14.3825 8.21141 14.3485C8.14774 14.3145 8.09448 14.2638 8.05726 14.202C8.02004 14.1401 8.00025 14.0693 8 13.9971V7.49114C8.00013 7.41879 8.01989 7.34783 8.05716 7.28582C8.09443 7.22381 8.14782 7.17307 8.21165 7.139C8.27547 7.10493 8.34734 7.08882 8.41961 7.09236C8.49187 7.09591 8.56182 7.11899 8.622 7.15914Z" fill="white"/>
</svg>
